<?xml version="1.0" encoding="UTF-8" standalone="no"?><svg xmlns="http://www.w3.org/2000/svg" xmlns:xlink="http://www.w3.org/1999/xlink" width="500" zoomAndPan="magnify" viewBox="0 0 375 374.999991" height="500" preserveAspectRatio="xMidYMid meet" version="1.0"><defs><g/><clipPath id="0f06a81549"><path d="M 215 89 L 363 89 L 363 285 L 215 285 Z M 215 89 " clip-rule="nonzero"/></clipPath><clipPath id="dc238bbf5a"><path d="M 135.117188 200.898438 L 256.839844 53.386719 L 402.617188 173.675781 L 280.894531 321.191406 Z M 135.117188 200.898438 " clip-rule="nonzero"/></clipPath><clipPath id="908cc2a863"><path d="M 135.117188 200.898438 L 256.839844 53.386719 L 402.617188 173.675781 L 280.894531 321.191406 Z M 135.117188 200.898438 " clip-rule="nonzero"/></clipPath><clipPath id="d1235b8574"><path d="M 351 156 L 367 156 L 367 172 L 351 172 Z M 351 156 " clip-rule="nonzero"/></clipPath><clipPath id="d6f0379cb1"><path d="M 135.117188 200.898438 L 256.839844 53.386719 L 402.617188 173.675781 L 280.894531 321.191406 Z M 135.117188 200.898438 " clip-rule="nonzero"/></clipPath><clipPath id="68ebd5a5ec"><path d="M 135.117188 200.898438 L 256.839844 53.386719 L 402.617188 173.675781 L 280.894531 321.191406 Z M 135.117188 200.898438 " clip-rule="nonzero"/></clipPath></defs><rect x="-37.5" width="450" fill="#ffffff" y="-37.499999" height="449.999989" fill-opacity="1"/><rect x="-37.5" width="450" fill="#ffffff" y="-37.499999" height="449.999989" fill-opacity="1"/><rect x="-37.5" width="450" fill="#ffffff" y="-37.499999" height="449.999989" fill-opacity="1"/><g clip-path="url(#0f06a81549)"><g clip-path="url(#dc238bbf5a)"><g clip-path="url(#908cc2a863)"><path fill="#776391" d="M 215.964844 104.515625 C 215.609375 103.90625 215.816406 103.121094 216.429688 102.765625 C 250.722656 82.769531 295.179688 85.019531 327.503906 111.695312 C 341.039062 122.863281 350.773438 136.933594 356.554688 152.269531 C 356.804688 152.929688 356.472656 153.667969 355.8125 153.917969 C 355.152344 154.171875 354.414062 153.839844 354.164062 153.179688 C 348.535156 138.25 339.058594 124.546875 325.875 113.671875 C 294.398438 87.699219 251.109375 85.5 217.710938 104.976562 C 217.097656 105.332031 216.316406 105.125 215.964844 104.515625 Z M 227.261719 275.570312 C 227.53125 274.917969 228.28125 274.605469 228.933594 274.875 C 266.4375 290.363281 311.234375 280.386719 338.476562 247.367188 C 355.496094 226.746094 362.386719 201.113281 359.726562 176.511719 C 359.648438 175.8125 360.15625 175.179688 360.859375 175.101562 C 361.558594 175.023438 362.191406 175.527344 362.265625 176.230469 C 365 201.488281 357.921875 227.816406 340.445312 248.992188 C 312.464844 282.902344 266.464844 293.140625 227.953125 277.238281 C 227.300781 276.96875 226.992188 276.222656 227.261719 275.570312 Z M 227.261719 275.570312 " fill-opacity="1" fill-rule="evenodd"/></g></g></g><g clip-path="url(#d1235b8574)"><g clip-path="url(#d6f0379cb1)"><g clip-path="url(#68ebd5a5ec)"><path fill="#776391" d="M 354.925781 160.871094 C 353.125 163.054688 353.429688 166.277344 355.601562 168.070312 C 357.777344 169.863281 361 169.550781 362.796875 167.371094 C 364.597656 165.1875 364.292969 161.96875 362.121094 160.171875 C 359.945312 158.378906 356.722656 158.691406 354.925781 160.871094 Z M 353.972656 170.046875 C 350.710938 167.355469 350.257812 162.519531 352.957031 159.25 C 355.65625 155.976562 360.488281 155.507812 363.75 158.199219 C 367.011719 160.890625 367.464844 165.722656 364.765625 168.996094 C 362.066406 172.265625 357.234375 172.738281 353.972656 170.046875 Z M 353.972656 170.046875 " fill-opacity="1" fill-rule="evenodd"/></g></g></g><g fill="#776391" fill-opacity="1"><g transform="translate(45.175783, 194.469978)"><g><path d="M 13.585938 -44.175781 C 11.882812 -41.492188 10.722656 -38.570312 10.480469 -35.398438 C 10.175781 -31.441406 12.671875 -29.003906 16.574219 -29.429688 C 20.105469 -29.792969 23.273438 -31.195312 26.261719 -33.023438 C 30.953125 -35.886719 34.914062 -39.664062 38.875 -43.503906 C 43.566406 -48.074219 48.011719 -52.886719 52.949219 -57.214844 C 54.472656 -58.492188 55.996094 -59.773438 57.699219 -60.808594 C 56.238281 -59.101562 54.652344 -57.457031 53.253906 -55.691406 C 46.792969 -47.769531 41.738281 -38.933594 37.105469 -29.855469 C 34.667969 -24.980469 32.050781 -20.167969 29.550781 -15.292969 C 29.183594 -14.625 28.878906 -14.441406 28.273438 -14.929688 C 27.113281 -15.964844 25.46875 -16.511719 25.589844 -18.523438 C 25.589844 -18.582031 25.46875 -18.707031 25.40625 -18.707031 C 24.738281 -19.070312 24.007812 -18.949219 23.398438 -18.582031 C 22.789062 -18.21875 22.605469 -17.730469 22.847656 -17.121094 C 23.398438 -15.78125 24.1875 -14.683594 25.46875 -13.953125 C 26.261719 -13.40625 27.785156 -13.40625 27.90625 -12.550781 C 27.96875 -11.699219 27.054688 -10.722656 26.566406 -9.871094 C 22.605469 -2.558594 18.523438 4.570312 13.101562 10.90625 C 9.503906 14.988281 5.847656 19.011719 0 19.800781 C -0.304688 19.800781 -0.851562 19.863281 -0.851562 20.351562 C -0.851562 20.839844 -0.304688 20.960938 0.121094 21.082031 C 0.425781 21.144531 0.792969 21.203125 1.097656 21.203125 C 2.742188 21.082031 4.386719 20.960938 5.972656 20.59375 C 8.652344 19.984375 10.601562 18.277344 12.550781 16.449219 C 16.085938 13.039062 19.011719 9.019531 21.691406 4.875 C 25.164062 -0.367188 28.148438 -5.910156 31.074219 -11.453125 C 31.316406 -11.941406 31.5 -12.308594 32.171875 -12.367188 C 38.140625 -12.671875 43.929688 -13.953125 49.597656 -15.84375 C 62.636719 -20.167969 72.933594 -27.96875 80.246094 -39.664062 C 84.023438 -45.636719 86.398438 -51.972656 85.546875 -59.222656 C 84.996094 -63.792969 83.109375 -67.691406 79.636719 -70.679688 C 75.675781 -74.089844 70.921875 -75.859375 65.683594 -76.222656 C 58.066406 -76.710938 50.816406 -75.003906 44.050781 -71.777344 C 31.136719 -65.683594 21.082031 -56.238281 13.585938 -44.175781 Z M 64.828125 -74.578125 C 71.472656 -74.03125 78.964844 -69.949219 80.488281 -60.929688 C 81.339844 -55.871094 80.425781 -50.9375 78.417969 -46.308594 C 75.613281 -39.910156 71.59375 -34.425781 66.597656 -29.550781 C 57.335938 -20.535156 46.125 -15.597656 33.390625 -14.074219 C 33.085938 -14.015625 32.78125 -13.890625 32.414062 -14.136719 C 32.839844 -14.929688 33.207031 -15.71875 33.632812 -16.449219 C 37.351562 -23.640625 40.640625 -31.074219 44.660156 -38.082031 C 49.230469 -46.003906 54.289062 -53.558594 60.808594 -60.015625 C 61.90625 -61.113281 63.0625 -62.085938 64.28125 -63 C 65.011719 -63.550781 65.683594 -64.21875 66.71875 -64.097656 C 67.082031 -64.097656 67.632812 -64.34375 67.691406 -64.769531 C 67.753906 -65.257812 67.207031 -65.316406 66.902344 -65.4375 C 65.742188 -65.804688 64.523438 -65.683594 63.367188 -65.5 C 59.589844 -64.890625 56.480469 -62.878906 53.496094 -60.625 C 48.867188 -57.152344 44.964844 -52.949219 40.882812 -48.867188 C 36.3125 -44.355469 31.925781 -39.542969 26.75 -35.644531 C 23.824219 -33.449219 20.714844 -31.621094 17.058594 -30.832031 C 15.171875 -30.402344 14.136719 -30.953125 13.464844 -32.78125 C 12.855469 -34.363281 12.976562 -35.949219 13.34375 -37.53125 C 13.953125 -40.214844 15.050781 -42.710938 16.511719 -45.027344 C 24.066406 -57.03125 34.363281 -65.925781 47.527344 -71.410156 C 53.007812 -73.664062 58.796875 -75.066406 64.828125 -74.578125 Z M 64.828125 -74.578125 "/></g></g></g><g fill="#776391" fill-opacity="1"><g transform="translate(112.864388, 194.469978)"><g><path d="M 20.960938 -19.191406 C 19.925781 -19.800781 19.191406 -19.863281 18.21875 -19.132812 C 15.355469 -16.878906 12.796875 -14.320312 10.417969 -11.578125 C 8.835938 -9.6875 7.617188 -7.554688 6.03125 -5.667969 C 4.875 -4.324219 3.839844 -2.984375 2.5 -1.828125 C 1.707031 -1.21875 1.523438 -1.339844 1.339844 -2.316406 C 1.28125 -3.046875 1.28125 -3.714844 1.402344 -4.449219 C 1.828125 -6.945312 2.621094 -9.261719 3.777344 -11.515625 C 4.507812 -12.917969 5.363281 -14.195312 6.09375 -15.539062 C 6.703125 -16.574219 6.457031 -17 5.300781 -17.183594 C 4.324219 -17.304688 3.472656 -17.058594 2.742188 -16.269531 C 0.0625 -13.34375 -1.28125 -9.871094 -1.828125 -5.972656 C -2.011719 -4.996094 -1.949219 -4.019531 -1.765625 -3.046875 C -1.402344 -1.21875 -0.183594 -0.183594 1.707031 -0.121094 C 2.679688 -0.0625 3.535156 -0.367188 4.324219 -1.035156 C 5.300781 -1.890625 6.152344 -2.925781 7.128906 -4.019531 C 7.191406 -3.714844 7.25 -3.65625 7.191406 -3.535156 C 7.066406 -3.167969 6.945312 -2.863281 6.824219 -2.5 C 5.421875 1.035156 4.449219 4.691406 4.265625 8.46875 C 4.082031 11.210938 4.449219 13.832031 5.726562 16.269531 C 6.335938 17.363281 7.066406 18.277344 8.226562 18.707031 C 8.46875 18.828125 8.773438 19.070312 8.957031 18.765625 C 9.199219 18.460938 8.957031 18.21875 8.714844 18.035156 C 7.859375 17.425781 7.617188 16.449219 7.3125 15.476562 C 6.457031 12.613281 6.519531 9.75 7.066406 6.824219 C 8.105469 1.644531 10.113281 -3.109375 12.734375 -7.617188 C 14.988281 -11.515625 17.609375 -15.109375 20.960938 -18.15625 C 21.449219 -18.582031 21.507812 -18.828125 20.960938 -19.191406 Z M 20.960938 -19.191406 "/></g></g></g><g fill="#776391" fill-opacity="1"><g transform="translate(136.930099, 194.469978)"><g><path d="M 39.300781 -11.515625 C 39.054688 -11.515625 38.8125 -11.394531 38.628906 -11.332031 C 36.253906 -10.175781 33.878906 -8.957031 31.621094 -7.617188 C 28.453125 -5.667969 25.285156 -3.714844 21.875 -2.070312 C 20.167969 -1.28125 18.402344 -0.367188 16.511719 -0.0625 C 14.5 0.242188 14.074219 -0.183594 14.257812 -2.132812 C 14.257812 -2.253906 14.257812 -2.4375 14.257812 -2.558594 C 14.5 -4.082031 14.988281 -5.484375 15.660156 -6.824219 C 16.574219 -8.773438 17.546875 -10.664062 18.523438 -12.550781 C 19.011719 -13.527344 19.375 -14.5 19.679688 -15.539062 C 20.046875 -16.9375 19.496094 -18.035156 18.460938 -18.949219 C 17.425781 -19.800781 16.449219 -19.4375 15.476562 -18.886719 C 14.378906 -18.277344 13.464844 -17.488281 12.550781 -16.632812 C 9.261719 -13.710938 6.152344 -10.601562 3.109375 -7.496094 C 2.558594 -6.886719 2.011719 -6.335938 1.035156 -6.09375 C 1.097656 -6.945312 1.402344 -7.617188 1.707031 -8.285156 C 2.5 -10.054688 3.535156 -11.699219 4.628906 -13.28125 C 5.667969 -14.625 5.363281 -15.84375 4.019531 -16.695312 C 3.410156 -17.058594 2.925781 -17.058594 2.4375 -16.574219 C -0.121094 -14.074219 -1.707031 -11.148438 -1.585938 -7.433594 C -1.523438 -6.277344 -1.097656 -5.300781 -0.367188 -4.449219 C 0.488281 -3.472656 1.28125 -3.351562 2.316406 -4.144531 C 2.742188 -4.449219 3.167969 -4.753906 3.535156 -5.117188 C 6.519531 -8.105469 9.324219 -11.332031 12.550781 -14.074219 C 13.890625 -15.234375 15.171875 -16.328125 17.183594 -17 C 16.390625 -15.050781 15.355469 -13.527344 14.441406 -12.003906 C 12.734375 -9.078125 12.003906 -5.972656 12.308594 -2.679688 C 12.550781 0.121094 14.683594 2.621094 18.277344 1.339844 C 20.289062 0.609375 22.238281 -0.242188 24.066406 -1.28125 C 27.601562 -3.167969 30.890625 -5.300781 34.304688 -7.3125 C 36.070312 -8.285156 37.777344 -9.261719 39.484375 -10.234375 C 39.726562 -10.417969 40.152344 -10.480469 40.03125 -10.96875 C 39.910156 -11.273438 39.664062 -11.515625 39.300781 -11.515625 Z M 39.300781 -11.515625 "/></g></g></g><g fill="#776391" fill-opacity="1"><g transform="translate(175.313374, 194.469978)"><g><path d="M 13.585938 -44.175781 C 11.882812 -41.492188 10.722656 -38.570312 10.480469 -35.398438 C 10.175781 -31.441406 12.671875 -29.003906 16.574219 -29.429688 C 20.105469 -29.792969 23.273438 -31.195312 26.261719 -33.023438 C 30.953125 -35.886719 34.914062 -39.664062 38.875 -43.503906 C 43.566406 -48.074219 48.011719 -52.886719 52.949219 -57.214844 C 54.472656 -58.492188 55.996094 -59.773438 57.699219 -60.808594 C 56.238281 -59.101562 54.652344 -57.457031 53.253906 -55.691406 C 46.792969 -47.769531 41.738281 -38.933594 37.105469 -29.855469 C 34.667969 -24.980469 32.050781 -20.167969 29.550781 -15.292969 C 29.183594 -14.625 28.878906 -14.441406 28.273438 -14.929688 C 27.113281 -15.964844 25.46875 -16.511719 25.589844 -18.523438 C 25.589844 -18.582031 25.46875 -18.707031 25.40625 -18.707031 C 24.738281 -19.070312 24.007812 -18.949219 23.398438 -18.582031 C 22.789062 -18.21875 22.605469 -17.730469 22.847656 -17.121094 C 23.398438 -15.78125 24.1875 -14.683594 25.46875 -13.953125 C 26.261719 -13.40625 27.785156 -13.40625 27.90625 -12.550781 C 27.96875 -11.699219 27.054688 -10.722656 26.566406 -9.871094 C 22.605469 -2.558594 18.523438 4.570312 13.101562 10.90625 C 9.503906 14.988281 5.847656 19.011719 0 19.800781 C -0.304688 19.800781 -0.851562 19.863281 -0.851562 20.351562 C -0.851562 20.839844 -0.304688 20.960938 0.121094 21.082031 C 0.425781 21.144531 0.792969 21.203125 1.097656 21.203125 C 2.742188 21.082031 4.386719 20.960938 5.972656 20.59375 C 8.652344 19.984375 10.601562 18.277344 12.550781 16.449219 C 16.085938 13.039062 19.011719 9.019531 21.691406 4.875 C 25.164062 -0.367188 28.148438 -5.910156 31.074219 -11.453125 C 31.316406 -11.941406 31.5 -12.308594 32.171875 -12.367188 C 38.140625 -12.671875 43.929688 -13.953125 49.597656 -15.84375 C 62.636719 -20.167969 72.933594 -27.96875 80.246094 -39.664062 C 84.023438 -45.636719 86.398438 -51.972656 85.546875 -59.222656 C 84.996094 -63.792969 83.109375 -67.691406 79.636719 -70.679688 C 75.675781 -74.089844 70.921875 -75.859375 65.683594 -76.222656 C 58.066406 -76.710938 50.816406 -75.003906 44.050781 -71.777344 C 31.136719 -65.683594 21.082031 -56.238281 13.585938 -44.175781 Z M 64.828125 -74.578125 C 71.472656 -74.03125 78.964844 -69.949219 80.488281 -60.929688 C 81.339844 -55.871094 80.425781 -50.9375 78.417969 -46.308594 C 75.613281 -39.910156 71.59375 -34.425781 66.597656 -29.550781 C 57.335938 -20.535156 46.125 -15.597656 33.390625 -14.074219 C 33.085938 -14.015625 32.78125 -13.890625 32.414062 -14.136719 C 32.839844 -14.929688 33.207031 -15.71875 33.632812 -16.449219 C 37.351562 -23.640625 40.640625 -31.074219 44.660156 -38.082031 C 49.230469 -46.003906 54.289062 -53.558594 60.808594 -60.015625 C 61.90625 -61.113281 63.0625 -62.085938 64.28125 -63 C 65.011719 -63.550781 65.683594 -64.21875 66.71875 -64.097656 C 67.082031 -64.097656 67.632812 -64.34375 67.691406 -64.769531 C 67.753906 -65.257812 67.207031 -65.316406 66.902344 -65.4375 C 65.742188 -65.804688 64.523438 -65.683594 63.367188 -65.5 C 59.589844 -64.890625 56.480469 -62.878906 53.496094 -60.625 C 48.867188 -57.152344 44.964844 -52.949219 40.882812 -48.867188 C 36.3125 -44.355469 31.925781 -39.542969 26.75 -35.644531 C 23.824219 -33.449219 20.714844 -31.621094 17.058594 -30.832031 C 15.171875 -30.402344 14.136719 -30.953125 13.464844 -32.78125 C 12.855469 -34.363281 12.976562 -35.949219 13.34375 -37.53125 C 13.953125 -40.214844 15.050781 -42.710938 16.511719 -45.027344 C 24.066406 -57.03125 34.363281 -65.925781 47.527344 -71.410156 C 53.007812 -73.664062 58.796875 -75.066406 64.828125 -74.578125 Z M 64.828125 -74.578125 "/></g></g></g><g fill="#776391" fill-opacity="1"><g transform="translate(243.00198, 194.469978)"><g><path d="M 20.960938 -19.191406 C 19.925781 -19.800781 19.191406 -19.863281 18.21875 -19.132812 C 15.355469 -16.878906 12.796875 -14.320312 10.417969 -11.578125 C 8.835938 -9.6875 7.617188 -7.554688 6.03125 -5.667969 C 4.875 -4.324219 3.839844 -2.984375 2.5 -1.828125 C 1.707031 -1.21875 1.523438 -1.339844 1.339844 -2.316406 C 1.28125 -3.046875 1.28125 -3.714844 1.402344 -4.449219 C 1.828125 -6.945312 2.621094 -9.261719 3.777344 -11.515625 C 4.507812 -12.917969 5.363281 -14.195312 6.09375 -15.539062 C 6.703125 -16.574219 6.457031 -17 5.300781 -17.183594 C 4.324219 -17.304688 3.472656 -17.058594 2.742188 -16.269531 C 0.0625 -13.34375 -1.28125 -9.871094 -1.828125 -5.972656 C -2.011719 -4.996094 -1.949219 -4.019531 -1.765625 -3.046875 C -1.402344 -1.21875 -0.183594 -0.183594 1.707031 -0.121094 C 2.679688 -0.0625 3.535156 -0.367188 4.324219 -1.035156 C 5.300781 -1.890625 6.152344 -2.925781 7.128906 -4.019531 C 7.191406 -3.714844 7.25 -3.65625 7.191406 -3.535156 C 7.066406 -3.167969 6.945312 -2.863281 6.824219 -2.5 C 5.421875 1.035156 4.449219 4.691406 4.265625 8.46875 C 4.082031 11.210938 4.449219 13.832031 5.726562 16.269531 C 6.335938 17.363281 7.066406 18.277344 8.226562 18.707031 C 8.46875 18.828125 8.773438 19.070312 8.957031 18.765625 C 9.199219 18.460938 8.957031 18.21875 8.714844 18.035156 C 7.859375 17.425781 7.617188 16.449219 7.3125 15.476562 C 6.457031 12.613281 6.519531 9.75 7.066406 6.824219 C 8.105469 1.644531 10.113281 -3.109375 12.734375 -7.617188 C 14.988281 -11.515625 17.609375 -15.109375 20.960938 -18.15625 C 21.449219 -18.582031 21.507812 -18.828125 20.960938 -19.191406 Z M 20.960938 -19.191406 "/></g></g></g><g fill="#776391" fill-opacity="1"><g transform="translate(267.06769, 194.469978)"><g><path d="M 39.300781 -11.515625 C 39.054688 -11.515625 38.8125 -11.394531 38.628906 -11.332031 C 36.253906 -10.175781 33.878906 -8.957031 31.621094 -7.617188 C 28.453125 -5.667969 25.285156 -3.714844 21.875 -2.070312 C 20.167969 -1.28125 18.402344 -0.367188 16.511719 -0.0625 C 14.5 0.242188 14.074219 -0.183594 14.257812 -2.132812 C 14.257812 -2.253906 14.257812 -2.4375 14.257812 -2.558594 C 14.5 -4.082031 14.988281 -5.484375 15.660156 -6.824219 C 16.574219 -8.773438 17.546875 -10.664062 18.523438 -12.550781 C 19.011719 -13.527344 19.375 -14.5 19.679688 -15.539062 C 20.046875 -16.9375 19.496094 -18.035156 18.460938 -18.949219 C 17.425781 -19.800781 16.449219 -19.4375 15.476562 -18.886719 C 14.378906 -18.277344 13.464844 -17.488281 12.550781 -16.632812 C 9.261719 -13.710938 6.152344 -10.601562 3.109375 -7.496094 C 2.558594 -6.886719 2.011719 -6.335938 1.035156 -6.09375 C 1.097656 -6.945312 1.402344 -7.617188 1.707031 -8.285156 C 2.5 -10.054688 3.535156 -11.699219 4.628906 -13.28125 C 5.667969 -14.625 5.363281 -15.84375 4.019531 -16.695312 C 3.410156 -17.058594 2.925781 -17.058594 2.4375 -16.574219 C -0.121094 -14.074219 -1.707031 -11.148438 -1.585938 -7.433594 C -1.523438 -6.277344 -1.097656 -5.300781 -0.367188 -4.449219 C 0.488281 -3.472656 1.28125 -3.351562 2.316406 -4.144531 C 2.742188 -4.449219 3.167969 -4.753906 3.535156 -5.117188 C 6.519531 -8.105469 9.324219 -11.332031 12.550781 -14.074219 C 13.890625 -15.234375 15.171875 -16.328125 17.183594 -17 C 16.390625 -15.050781 15.355469 -13.527344 14.441406 -12.003906 C 12.734375 -9.078125 12.003906 -5.972656 12.308594 -2.679688 C 12.550781 0.121094 14.683594 2.621094 18.277344 1.339844 C 20.289062 0.609375 22.238281 -0.242188 24.066406 -1.28125 C 27.601562 -3.167969 30.890625 -5.300781 34.304688 -7.3125 C 36.070312 -8.285156 37.777344 -9.261719 39.484375 -10.234375 C 39.726562 -10.417969 40.152344 -10.480469 40.03125 -10.96875 C 39.910156 -11.273438 39.664062 -11.515625 39.300781 -11.515625 Z M 39.300781 -11.515625 "/></g></g></g><g fill="#776391" fill-opacity="1"><g transform="translate(305.449207, 194.469978)"><g/></g></g><g fill="#776391" fill-opacity="1"><g transform="translate(54.050606, 222.213281)"><g><path d="M 6.125 -4.375 C 6.613281 -4.226562 6.988281 -3.972656 7.25 -3.609375 C 7.519531 -3.253906 7.65625 -2.816406 7.65625 -2.296875 C 7.65625 -1.578125 7.394531 -1.015625 6.875 -0.609375 C 6.363281 -0.203125 5.65625 0 4.75 0 L 1.65625 0 C 1.425781 0 1.242188 -0.0625 1.109375 -0.1875 C 0.972656 -0.320312 0.90625 -0.503906 0.90625 -0.734375 L 0.90625 -7.734375 C 0.90625 -7.960938 0.972656 -8.140625 1.109375 -8.265625 C 1.242188 -8.390625 1.425781 -8.453125 1.65625 -8.453125 L 4.625 -8.453125 C 5.507812 -8.453125 6.203125 -8.257812 6.703125 -7.875 C 7.203125 -7.488281 7.453125 -6.945312 7.453125 -6.25 C 7.453125 -5.800781 7.332031 -5.410156 7.09375 -5.078125 C 6.863281 -4.753906 6.539062 -4.519531 6.125 -4.375 Z M 2.421875 -4.890625 L 4.375 -4.890625 C 5.4375 -4.890625 5.96875 -5.285156 5.96875 -6.078125 C 5.96875 -6.484375 5.835938 -6.78125 5.578125 -6.96875 C 5.316406 -7.164062 4.914062 -7.265625 4.375 -7.265625 L 2.421875 -7.265625 Z M 4.578125 -1.203125 C 5.140625 -1.203125 5.546875 -1.300781 5.796875 -1.5 C 6.054688 -1.695312 6.1875 -2.007812 6.1875 -2.4375 C 6.1875 -2.863281 6.054688 -3.179688 5.796875 -3.390625 C 5.535156 -3.597656 5.128906 -3.703125 4.578125 -3.703125 L 2.421875 -3.703125 L 2.421875 -1.203125 Z M 4.578125 -1.203125 "/></g></g></g><g fill="#776391" fill-opacity="1"><g transform="translate(68.306624, 222.213281)"><g><path d="M 1.65625 0 C 1.425781 0 1.242188 -0.0625 1.109375 -0.1875 C 0.972656 -0.320312 0.90625 -0.503906 0.90625 -0.734375 L 0.90625 -7.734375 C 0.90625 -7.960938 0.972656 -8.140625 1.109375 -8.265625 C 1.242188 -8.390625 1.425781 -8.453125 1.65625 -8.453125 L 5.984375 -8.453125 C 6.222656 -8.453125 6.40625 -8.398438 6.53125 -8.296875 C 6.65625 -8.191406 6.71875 -8.046875 6.71875 -7.859375 C 6.71875 -7.660156 6.65625 -7.503906 6.53125 -7.390625 C 6.40625 -7.285156 6.222656 -7.234375 5.984375 -7.234375 L 2.421875 -7.234375 L 2.421875 -4.90625 L 5.75 -4.90625 C 5.976562 -4.90625 6.15625 -4.851562 6.28125 -4.75 C 6.414062 -4.644531 6.484375 -4.492188 6.484375 -4.296875 C 6.484375 -4.109375 6.414062 -3.960938 6.28125 -3.859375 C 6.15625 -3.753906 5.976562 -3.703125 5.75 -3.703125 L 2.421875 -3.703125 L 2.421875 -1.21875 L 5.984375 -1.21875 C 6.222656 -1.21875 6.40625 -1.164062 6.53125 -1.0625 C 6.65625 -0.957031 6.71875 -0.800781 6.71875 -0.59375 C 6.71875 -0.40625 6.65625 -0.257812 6.53125 -0.15625 C 6.40625 -0.0507812 6.222656 0 5.984375 0 Z M 1.65625 0 "/></g></g></g><g fill="#776391" fill-opacity="1"><g transform="translate(81.434642, 222.213281)"><g><path d="M 8.578125 -0.921875 C 8.628906 -0.816406 8.65625 -0.710938 8.65625 -0.609375 C 8.65625 -0.429688 8.578125 -0.273438 8.421875 -0.140625 C 8.273438 -0.015625 8.109375 0.046875 7.921875 0.046875 C 7.796875 0.046875 7.675781 0.015625 7.5625 -0.046875 C 7.445312 -0.117188 7.359375 -0.226562 7.296875 -0.375 L 6.578125 -1.984375 L 2.359375 -1.984375 L 1.625 -0.375 C 1.5625 -0.226562 1.472656 -0.117188 1.359375 -0.046875 C 1.253906 0.015625 1.132812 0.046875 1 0.046875 C 0.8125 0.046875 0.640625 -0.015625 0.484375 -0.140625 C 0.335938 -0.273438 0.265625 -0.429688 0.265625 -0.609375 C 0.265625 -0.710938 0.289062 -0.816406 0.34375 -0.921875 L 3.640625 -8.046875 C 3.710938 -8.203125 3.820312 -8.320312 3.96875 -8.40625 C 4.125 -8.488281 4.285156 -8.53125 4.453125 -8.53125 C 4.617188 -8.53125 4.773438 -8.488281 4.921875 -8.40625 C 5.066406 -8.320312 5.175781 -8.203125 5.25 -8.046875 Z M 2.875 -3.1875 L 6.046875 -3.1875 L 4.46875 -6.75 Z M 2.875 -3.1875 "/></g></g></g><g fill="#776391" fill-opacity="1"><g transform="translate(96.398658, 222.213281)"><g><path d="M 4.40625 0.109375 C 3.238281 0.109375 2.351562 -0.1875 1.75 -0.78125 C 1.15625 -1.382812 0.859375 -2.265625 0.859375 -3.421875 L 0.859375 -7.75 C 0.859375 -7.976562 0.925781 -8.160156 1.0625 -8.296875 C 1.195312 -8.441406 1.382812 -8.515625 1.625 -8.515625 C 1.851562 -8.515625 2.035156 -8.441406 2.171875 -8.296875 C 2.304688 -8.160156 2.375 -7.976562 2.375 -7.75 L 2.375 -3.34375 C 2.375 -2.613281 2.546875 -2.0625 2.890625 -1.6875 C 3.234375 -1.3125 3.738281 -1.125 4.40625 -1.125 C 5.0625 -1.125 5.5625 -1.3125 5.90625 -1.6875 C 6.25 -2.0625 6.421875 -2.613281 6.421875 -3.34375 L 6.421875 -7.75 C 6.421875 -7.976562 6.488281 -8.160156 6.625 -8.296875 C 6.757812 -8.441406 6.941406 -8.515625 7.171875 -8.515625 C 7.410156 -8.515625 7.597656 -8.441406 7.734375 -8.296875 C 7.867188 -8.160156 7.9375 -7.976562 7.9375 -7.75 L 7.9375 -3.421875 C 7.9375 -2.273438 7.632812 -1.398438 7.03125 -0.796875 C 6.425781 -0.191406 5.550781 0.109375 4.40625 0.109375 Z M 4.40625 0.109375 "/></g></g></g><g fill="#776391" fill-opacity="1"><g transform="translate(111.254679, 222.213281)"><g><path d="M 3.6875 0.0625 C 3.445312 0.0625 3.253906 -0.00390625 3.109375 -0.140625 C 2.972656 -0.285156 2.90625 -0.472656 2.90625 -0.703125 L 2.90625 -7.1875 L 0.71875 -7.1875 C 0.238281 -7.1875 0 -7.398438 0 -7.828125 C 0 -8.242188 0.238281 -8.453125 0.71875 -8.453125 L 6.640625 -8.453125 C 7.117188 -8.453125 7.359375 -8.242188 7.359375 -7.828125 C 7.359375 -7.398438 7.117188 -7.1875 6.640625 -7.1875 L 4.453125 -7.1875 L 4.453125 -0.703125 C 4.453125 -0.472656 4.378906 -0.285156 4.234375 -0.140625 C 4.097656 -0.00390625 3.914062 0.0625 3.6875 0.0625 Z M 3.6875 0.0625 "/></g></g></g><g fill="#776391" fill-opacity="1"><g transform="translate(124.67069, 222.213281)"><g><path d="M 6.1875 -8.25 C 6.332031 -8.425781 6.503906 -8.515625 6.703125 -8.515625 C 6.890625 -8.515625 7.054688 -8.441406 7.203125 -8.296875 C 7.347656 -8.160156 7.421875 -8 7.421875 -7.8125 C 7.421875 -7.65625 7.359375 -7.503906 7.234375 -7.359375 L 4.515625 -4.03125 L 4.515625 -0.703125 C 4.515625 -0.460938 4.441406 -0.269531 4.296875 -0.125 C 4.148438 0.0078125 3.96875 0.078125 3.75 0.078125 C 3.507812 0.078125 3.316406 0.0078125 3.171875 -0.125 C 3.035156 -0.269531 2.96875 -0.460938 2.96875 -0.703125 L 2.96875 -4.03125 L 0.234375 -7.359375 C 0.117188 -7.503906 0.0625 -7.65625 0.0625 -7.8125 C 0.0625 -8 0.128906 -8.160156 0.265625 -8.296875 C 0.410156 -8.441406 0.578125 -8.515625 0.765625 -8.515625 C 0.960938 -8.515625 1.132812 -8.425781 1.28125 -8.25 L 3.75 -5.203125 Z M 6.1875 -8.25 "/></g></g></g><g fill="#776391" fill-opacity="1"><g transform="translate(138.206704, 222.213281)"><g/></g></g><g fill="#776391" fill-opacity="1"><g transform="translate(147.518715, 222.213281)"><g><path d="M 7.921875 -0.953125 C 8.054688 -0.816406 8.125 -0.671875 8.125 -0.515625 C 8.125 -0.359375 8.054688 -0.21875 7.921875 -0.09375 C 7.796875 0.03125 7.648438 0.09375 7.484375 0.09375 C 7.316406 0.09375 7.171875 0.0351562 7.046875 -0.078125 L 6.046875 -1.046875 C 5.671875 -0.671875 5.25 -0.382812 4.78125 -0.1875 C 4.320312 0 3.84375 0.09375 3.34375 0.09375 C 2.789062 0.09375 2.296875 0 1.859375 -0.1875 C 1.421875 -0.382812 1.078125 -0.65625 0.828125 -1 C 0.585938 -1.351562 0.46875 -1.757812 0.46875 -2.21875 C 0.46875 -2.726562 0.613281 -3.179688 0.90625 -3.578125 C 1.195312 -3.984375 1.648438 -4.363281 2.265625 -4.71875 C 1.960938 -5.03125 1.738281 -5.332031 1.59375 -5.625 C 1.445312 -5.925781 1.375 -6.234375 1.375 -6.546875 C 1.375 -7.160156 1.585938 -7.644531 2.015625 -8 C 2.441406 -8.363281 3 -8.546875 3.6875 -8.546875 C 4.320312 -8.546875 4.828125 -8.378906 5.203125 -8.046875 C 5.585938 -7.710938 5.78125 -7.265625 5.78125 -6.703125 C 5.78125 -6.273438 5.65625 -5.890625 5.40625 -5.546875 C 5.15625 -5.210938 4.757812 -4.878906 4.21875 -4.546875 L 5.90625 -2.90625 C 6.125 -3.382812 6.269531 -3.941406 6.34375 -4.578125 C 6.363281 -4.785156 6.4375 -4.941406 6.5625 -5.046875 C 6.6875 -5.148438 6.832031 -5.203125 7 -5.203125 C 7.175781 -5.203125 7.320312 -5.140625 7.4375 -5.015625 C 7.5625 -4.898438 7.609375 -4.738281 7.578125 -4.53125 C 7.503906 -3.59375 7.25 -2.757812 6.8125 -2.03125 Z M 3.703125 -7.515625 C 3.410156 -7.515625 3.171875 -7.425781 2.984375 -7.25 C 2.804688 -7.082031 2.71875 -6.851562 2.71875 -6.5625 C 2.71875 -6.363281 2.769531 -6.171875 2.875 -5.984375 C 2.988281 -5.804688 3.175781 -5.585938 3.4375 -5.328125 C 3.84375 -5.554688 4.128906 -5.769531 4.296875 -5.96875 C 4.472656 -6.175781 4.5625 -6.398438 4.5625 -6.640625 C 4.5625 -6.898438 4.484375 -7.109375 4.328125 -7.265625 C 4.171875 -7.429688 3.960938 -7.515625 3.703125 -7.515625 Z M 3.421875 -1.0625 C 3.742188 -1.0625 4.054688 -1.128906 4.359375 -1.265625 C 4.671875 -1.398438 4.953125 -1.597656 5.203125 -1.859375 L 3.078125 -3.921875 C 2.671875 -3.679688 2.378906 -3.429688 2.203125 -3.171875 C 2.023438 -2.910156 1.9375 -2.617188 1.9375 -2.296875 C 1.9375 -1.921875 2.066406 -1.617188 2.328125 -1.390625 C 2.597656 -1.171875 2.960938 -1.0625 3.421875 -1.0625 Z M 3.421875 -1.0625 "/></g></g></g><g fill="#776391" fill-opacity="1"><g transform="translate(161.75073, 222.213281)"><g/></g></g><g fill="#776391" fill-opacity="1"><g transform="translate(171.062741, 222.213281)"><g><path d="M 1.640625 0 C 1.410156 0 1.226562 -0.0625 1.09375 -0.1875 C 0.96875 -0.320312 0.90625 -0.5 0.90625 -0.71875 L 0.90625 -7.75 C 0.90625 -7.976562 0.972656 -8.160156 1.109375 -8.296875 C 1.253906 -8.441406 1.445312 -8.515625 1.6875 -8.515625 C 1.925781 -8.515625 2.113281 -8.441406 2.25 -8.296875 C 2.382812 -8.160156 2.453125 -7.976562 2.453125 -7.75 L 2.453125 -1.265625 L 5.828125 -1.265625 C 6.304688 -1.265625 6.546875 -1.054688 6.546875 -0.640625 C 6.546875 -0.210938 6.304688 0 5.828125 0 Z M 1.640625 0 "/></g></g></g><g fill="#776391" fill-opacity="1"><g transform="translate(183.782756, 222.213281)"><g><path d="M 1.6875 0.078125 C 1.445312 0.078125 1.253906 0.00390625 1.109375 -0.140625 C 0.972656 -0.285156 0.90625 -0.472656 0.90625 -0.703125 L 0.90625 -7.75 C 0.90625 -7.976562 0.972656 -8.160156 1.109375 -8.296875 C 1.253906 -8.441406 1.445312 -8.515625 1.6875 -8.515625 C 1.925781 -8.515625 2.113281 -8.441406 2.25 -8.296875 C 2.382812 -8.160156 2.453125 -7.976562 2.453125 -7.75 L 2.453125 -0.703125 C 2.453125 -0.472656 2.382812 -0.285156 2.25 -0.140625 C 2.113281 0.00390625 1.925781 0.078125 1.6875 0.078125 Z M 1.6875 0.078125 "/></g></g></g><g fill="#776391" fill-opacity="1"><g transform="translate(193.214759, 222.213281)"><g><path d="M 1.6875 0.078125 C 1.445312 0.078125 1.253906 0.00390625 1.109375 -0.140625 C 0.972656 -0.285156 0.90625 -0.472656 0.90625 -0.703125 L 0.90625 -7.734375 C 0.90625 -7.960938 0.972656 -8.140625 1.109375 -8.265625 C 1.242188 -8.390625 1.425781 -8.453125 1.65625 -8.453125 L 5.875 -8.453125 C 6.351562 -8.453125 6.59375 -8.25 6.59375 -7.84375 C 6.59375 -7.425781 6.351562 -7.21875 5.875 -7.21875 L 2.4375 -7.21875 L 2.4375 -4.921875 L 5.625 -4.921875 C 6.113281 -4.921875 6.359375 -4.710938 6.359375 -4.296875 C 6.359375 -3.890625 6.113281 -3.6875 5.625 -3.6875 L 2.4375 -3.6875 L 2.4375 -0.703125 C 2.4375 -0.472656 2.367188 -0.285156 2.234375 -0.140625 C 2.097656 0.00390625 1.914062 0.078125 1.6875 0.078125 Z M 1.6875 0.078125 "/></g></g></g><g fill="#776391" fill-opacity="1"><g transform="translate(206.066771, 222.213281)"><g><path d="M 1.65625 0 C 1.425781 0 1.242188 -0.0625 1.109375 -0.1875 C 0.972656 -0.320312 0.90625 -0.503906 0.90625 -0.734375 L 0.90625 -7.734375 C 0.90625 -7.960938 0.972656 -8.140625 1.109375 -8.265625 C 1.242188 -8.390625 1.425781 -8.453125 1.65625 -8.453125 L 5.984375 -8.453125 C 6.222656 -8.453125 6.40625 -8.398438 6.53125 -8.296875 C 6.65625 -8.191406 6.71875 -8.046875 6.71875 -7.859375 C 6.71875 -7.660156 6.65625 -7.503906 6.53125 -7.390625 C 6.40625 -7.285156 6.222656 -7.234375 5.984375 -7.234375 L 2.421875 -7.234375 L 2.421875 -4.90625 L 5.75 -4.90625 C 5.976562 -4.90625 6.15625 -4.851562 6.28125 -4.75 C 6.414062 -4.644531 6.484375 -4.492188 6.484375 -4.296875 C 6.484375 -4.109375 6.414062 -3.960938 6.28125 -3.859375 C 6.15625 -3.753906 5.976562 -3.703125 5.75 -3.703125 L 2.421875 -3.703125 L 2.421875 -1.21875 L 5.984375 -1.21875 C 6.222656 -1.21875 6.40625 -1.164062 6.53125 -1.0625 C 6.65625 -0.957031 6.71875 -0.800781 6.71875 -0.59375 C 6.71875 -0.40625 6.65625 -0.257812 6.53125 -0.15625 C 6.40625 -0.0507812 6.222656 0 5.984375 0 Z M 1.65625 0 "/></g></g></g><g fill="#776391" fill-opacity="1"><g transform="translate(219.194791, 222.213281)"><g><path d="M 3.84375 0.109375 C 3.226562 0.109375 2.644531 0.0234375 2.09375 -0.140625 C 1.539062 -0.304688 1.09375 -0.523438 0.75 -0.796875 C 0.570312 -0.941406 0.484375 -1.132812 0.484375 -1.375 C 0.484375 -1.539062 0.53125 -1.6875 0.625 -1.8125 C 0.726562 -1.9375 0.847656 -2 0.984375 -2 C 1.128906 -2 1.289062 -1.945312 1.46875 -1.84375 C 1.8125 -1.59375 2.171875 -1.410156 2.546875 -1.296875 C 2.929688 -1.179688 3.347656 -1.125 3.796875 -1.125 C 4.390625 -1.125 4.835938 -1.222656 5.140625 -1.421875 C 5.453125 -1.628906 5.609375 -1.929688 5.609375 -2.328125 C 5.609375 -2.628906 5.460938 -2.863281 5.171875 -3.03125 C 4.878906 -3.195312 4.394531 -3.351562 3.71875 -3.5 C 3.007812 -3.65625 2.4375 -3.832031 2 -4.03125 C 1.5625 -4.226562 1.226562 -4.484375 1 -4.796875 C 0.78125 -5.109375 0.671875 -5.503906 0.671875 -5.984375 C 0.671875 -6.484375 0.8125 -6.925781 1.09375 -7.3125 C 1.375 -7.707031 1.765625 -8.015625 2.265625 -8.234375 C 2.765625 -8.453125 3.328125 -8.5625 3.953125 -8.5625 C 5.085938 -8.5625 6.019531 -8.257812 6.75 -7.65625 C 6.851562 -7.570312 6.925781 -7.484375 6.96875 -7.390625 C 7.007812 -7.304688 7.03125 -7.203125 7.03125 -7.078125 C 7.03125 -6.910156 6.976562 -6.765625 6.875 -6.640625 C 6.78125 -6.515625 6.664062 -6.453125 6.53125 -6.453125 C 6.445312 -6.453125 6.367188 -6.460938 6.296875 -6.484375 C 6.234375 -6.515625 6.144531 -6.5625 6.03125 -6.625 C 5.707031 -6.863281 5.390625 -7.039062 5.078125 -7.15625 C 4.773438 -7.269531 4.398438 -7.328125 3.953125 -7.328125 C 3.398438 -7.328125 2.96875 -7.21875 2.65625 -7 C 2.34375 -6.78125 2.1875 -6.472656 2.1875 -6.078125 C 2.1875 -5.753906 2.328125 -5.503906 2.609375 -5.328125 C 2.890625 -5.148438 3.363281 -4.988281 4.03125 -4.84375 C 4.738281 -4.675781 5.316406 -4.492188 5.765625 -4.296875 C 6.210938 -4.109375 6.550781 -3.859375 6.78125 -3.546875 C 7.019531 -3.242188 7.140625 -2.863281 7.140625 -2.40625 C 7.140625 -1.914062 7 -1.476562 6.71875 -1.09375 C 6.445312 -0.71875 6.0625 -0.421875 5.5625 -0.203125 C 5.0625 0.00390625 4.488281 0.109375 3.84375 0.109375 Z M 3.84375 0.109375 "/></g></g></g><g fill="#776391" fill-opacity="1"><g transform="translate(232.910809, 222.213281)"><g><path d="M 3.6875 0.0625 C 3.445312 0.0625 3.253906 -0.00390625 3.109375 -0.140625 C 2.972656 -0.285156 2.90625 -0.472656 2.90625 -0.703125 L 2.90625 -7.1875 L 0.71875 -7.1875 C 0.238281 -7.1875 0 -7.398438 0 -7.828125 C 0 -8.242188 0.238281 -8.453125 0.71875 -8.453125 L 6.640625 -8.453125 C 7.117188 -8.453125 7.359375 -8.242188 7.359375 -7.828125 C 7.359375 -7.398438 7.117188 -7.1875 6.640625 -7.1875 L 4.453125 -7.1875 L 4.453125 -0.703125 C 4.453125 -0.472656 4.378906 -0.285156 4.234375 -0.140625 C 4.097656 -0.00390625 3.914062 0.0625 3.6875 0.0625 Z M 3.6875 0.0625 "/></g></g></g><g fill="#776391" fill-opacity="1"><g transform="translate(246.326808, 222.213281)"><g><path d="M 6.1875 -8.25 C 6.332031 -8.425781 6.503906 -8.515625 6.703125 -8.515625 C 6.890625 -8.515625 7.054688 -8.441406 7.203125 -8.296875 C 7.347656 -8.160156 7.421875 -8 7.421875 -7.8125 C 7.421875 -7.65625 7.359375 -7.503906 7.234375 -7.359375 L 4.515625 -4.03125 L 4.515625 -0.703125 C 4.515625 -0.460938 4.441406 -0.269531 4.296875 -0.125 C 4.148438 0.0078125 3.96875 0.078125 3.75 0.078125 C 3.507812 0.078125 3.316406 0.0078125 3.171875 -0.125 C 3.035156 -0.269531 2.96875 -0.460938 2.96875 -0.703125 L 2.96875 -4.03125 L 0.234375 -7.359375 C 0.117188 -7.503906 0.0625 -7.65625 0.0625 -7.8125 C 0.0625 -8 0.128906 -8.160156 0.265625 -8.296875 C 0.410156 -8.441406 0.578125 -8.515625 0.765625 -8.515625 C 0.960938 -8.515625 1.132812 -8.425781 1.28125 -8.25 L 3.75 -5.203125 Z M 6.1875 -8.25 "/></g></g></g><g fill="#776391" fill-opacity="1"><g transform="translate(259.86281, 222.213281)"><g><path d="M 1.640625 0 C 1.410156 0 1.226562 -0.0625 1.09375 -0.1875 C 0.96875 -0.320312 0.90625 -0.5 0.90625 -0.71875 L 0.90625 -7.75 C 0.90625 -7.976562 0.972656 -8.160156 1.109375 -8.296875 C 1.253906 -8.441406 1.445312 -8.515625 1.6875 -8.515625 C 1.925781 -8.515625 2.113281 -8.441406 2.25 -8.296875 C 2.382812 -8.160156 2.453125 -7.976562 2.453125 -7.75 L 2.453125 -1.265625 L 5.828125 -1.265625 C 6.304688 -1.265625 6.546875 -1.054688 6.546875 -0.640625 C 6.546875 -0.210938 6.304688 0 5.828125 0 Z M 1.640625 0 "/></g></g></g><g fill="#776391" fill-opacity="1"><g transform="translate(272.582826, 222.213281)"><g><path d="M 1.65625 0 C 1.425781 0 1.242188 -0.0625 1.109375 -0.1875 C 0.972656 -0.320312 0.90625 -0.503906 0.90625 -0.734375 L 0.90625 -7.734375 C 0.90625 -7.960938 0.972656 -8.140625 1.109375 -8.265625 C 1.242188 -8.390625 1.425781 -8.453125 1.65625 -8.453125 L 5.984375 -8.453125 C 6.222656 -8.453125 6.40625 -8.398438 6.53125 -8.296875 C 6.65625 -8.191406 6.71875 -8.046875 6.71875 -7.859375 C 6.71875 -7.660156 6.65625 -7.503906 6.53125 -7.390625 C 6.40625 -7.285156 6.222656 -7.234375 5.984375 -7.234375 L 2.421875 -7.234375 L 2.421875 -4.90625 L 5.75 -4.90625 C 5.976562 -4.90625 6.15625 -4.851562 6.28125 -4.75 C 6.414062 -4.644531 6.484375 -4.492188 6.484375 -4.296875 C 6.484375 -4.109375 6.414062 -3.960938 6.28125 -3.859375 C 6.15625 -3.753906 5.976562 -3.703125 5.75 -3.703125 L 2.421875 -3.703125 L 2.421875 -1.21875 L 5.984375 -1.21875 C 6.222656 -1.21875 6.40625 -1.164062 6.53125 -1.0625 C 6.65625 -0.957031 6.71875 -0.800781 6.71875 -0.59375 C 6.71875 -0.40625 6.65625 -0.257812 6.53125 -0.15625 C 6.40625 -0.0507812 6.222656 0 5.984375 0 Z M 1.65625 0 "/></g></g></g></svg>